<svg width="143" height="56" viewBox="0 0 143 56" fill="none" xmlns="http://www.w3.org/2000/svg">
    <path d="M25.7111 26.2866C26.422 22.8169 25.1424 20.3467 22.8249 18.719C20.7064 17.3054 18.0334 17.0913 15.2183 18.5048L3.44585 23.8164C0.48852 25.1586 -0.776876 28.6282 0.48852 31.5268C1.825 34.4967 5.20887 35.7675 8.1662 34.4967L9.71595 33.7828L7.18516 47.59C6.47427 51.7593 9.16146 55.1576 12.8297 55.8715C16.7112 56.5854 20.5074 54.0296 21.1472 50.1316L25.7111 26.2866Z" fill="url(#paint0_linear_4353_16503)"/>
    <path d="M132.715 17.691C126.246 16.7486 119.706 20.5466 117.203 25.9153L117.63 23.5737C118.682 18.8332 116.72 17.5625 113.336 17.5625H108.971C104.82 17.5625 103.896 19.8327 103.398 22.4457L98.3221 50.7598C97.8955 52.6731 98.1799 56 101.919 56H107.976C111.573 56 112.27 53.1729 112.767 50.4742L115.227 36.8812C115.796 33.7685 116.279 32.2835 117.346 31.1412C118.967 29.2993 122.208 28.4569 124.469 30.2988C125.805 31.4268 126.303 33.3401 125.948 36.0387L123.488 50.7598C122.948 54.0153 124.327 56 127.014 56H133.071C136.526 56 137.222 53.3156 137.72 50.4742L141.274 32.0408C142.867 25.4013 140.535 18.8332 132.715 17.691Z" fill="url(#paint1_linear_4353_16503)"/>
    <ellipse cx="93.8577" cy="6.93932" rx="6.98101" ry="6.93932" fill="url(#paint2_linear_4353_16503)"/>
    <path d="M94.2842 50.46C93.7866 53.4299 92.9477 55.9857 89.4927 55.9857H83.3648C80.4075 55.9857 79.3411 53.7868 79.9099 50.8883L84.9714 22.4314C85.4691 19.3901 86.8056 17.5482 90.5449 17.5482H95.1941C99.1467 17.5482 100.128 19.4615 99.2889 23.5594L94.2842 50.46Z" fill="url(#paint3_linear_4353_16503)"/>
    <path d="M26.9623 17.5482C28.512 19.3901 30.3461 21.6604 29.422 27.1718L27.0334 40.1367L27.4599 50.5456C27.531 54.3009 29.3651 55.9286 32.4646 55.9286H40.3556C42.8153 55.9286 43.8816 54.0153 44.8626 51.6165L50.8484 36.8241L51.4882 50.974C51.5593 54.0867 53.109 56 55.9953 56H64.9526C67.4834 56 68.5497 54.4436 69.6729 51.6879L81.161 23.3738C82.4264 20.4753 81.6586 17.5767 78.5591 17.5767H72.8435C70.7251 17.5767 69.2464 18.2907 68.4075 20.3325L60.6445 39.28L59.9337 22.36C59.7915 18.7476 58.0995 17.5482 56.0522 17.5482H50.2086C47.8769 17.5482 46.5404 18.462 45.8437 20.2325L38.0949 39.3514L37.384 21.9317C37.3129 18.6762 36.1897 17.5482 33.5736 17.5482H28.4978H26.9623Z" fill="url(#paint4_linear_4353_16503)"/>
    <defs>
        <linearGradient id="paint0_linear_4353_16503" x1="27.9923" y1="61.2942" x2="27.9923" y2="16.6457" gradientUnits="userSpaceOnUse">
            <stop stop-color="#0167CA"/>
            <stop offset="1" stop-color="#38A8FA"/>
        </linearGradient>
        <linearGradient id="paint1_linear_4353_16503" x1="142.854" y1="56.9983" x2="142.854" y2="16.5871" gradientUnits="userSpaceOnUse">
            <stop stop-color="#C8C7C7"/>
            <stop offset="0.0762789" stop-color="#D6D5D5"/>
            <stop offset="0.216" stop-color="#E8E8E8"/>
            <stop offset="0.3802" stop-color="#F5F5F5"/>
            <stop offset="0.5898" stop-color="#FDFDFD"/>
            <stop offset="1" stop-color="white"/>
        </linearGradient>
        <linearGradient id="paint2_linear_4353_16503" x1="103.835" y1="17.4324" x2="103.835" y2="-2.41023" gradientUnits="userSpaceOnUse">
            <stop stop-color="#0167CA"/>
            <stop offset="1" stop-color="#38A8FA"/>
        </linearGradient>
        <linearGradient id="paint3_linear_4353_16503" x1="100.064" y1="57.0687" x2="100.064" y2="16.6723" gradientUnits="userSpaceOnUse">
            <stop stop-color="#C8C7C7"/>
            <stop offset="0.0762789" stop-color="#D6D5D5"/>
            <stop offset="0.216" stop-color="#E8E8E8"/>
            <stop offset="0.3802" stop-color="#F5F5F5"/>
            <stop offset="0.5898" stop-color="#FDFDFD"/>
            <stop offset="1" stop-color="white"/>
        </linearGradient>
        <linearGradient id="paint4_linear_4353_16503" x1="83.0767" y1="56.9961" x2="83.0767" y2="16.6726" gradientUnits="userSpaceOnUse">
            <stop stop-color="#C8C7C7"/>
            <stop offset="0.0762789" stop-color="#D6D5D5"/>
            <stop offset="0.216" stop-color="#E8E8E8"/>
            <stop offset="0.3802" stop-color="#F5F5F5"/>
            <stop offset="0.5898" stop-color="#FDFDFD"/>
            <stop offset="1" stop-color="white"/>
        </linearGradient>
    </defs>
</svg>
